<svg width="14" height="12" viewBox="0 0 14 12" fill="none" xmlns="http://www.w3.org/2000/svg">
<path d="M13.8355 5.77445C10.763 4.89151 10.1241 4.22587 9.2756 1.02893C9.24865 0.927258 9.15993 0.857143 9.05887 0.857143C8.9578 0.857143 8.86909 0.927264 8.84213 1.02893C7.99373 4.22647 7.35413 4.8914 4.28224 5.77445C4.18454 5.80249 4.11773 5.89482 4.11773 6C4.11773 6.10518 4.18511 6.19751 4.28224 6.22556C7.3547 7.10849 7.99363 7.77413 8.84213 10.9711C8.86909 11.0727 8.9578 11.1429 9.05887 11.1429C9.15993 11.1429 9.24865 11.0727 9.2756 10.9711C10.124 7.77354 10.7636 7.1086 13.8355 6.22556C13.9332 6.19751 14 6.10518 14 6C14 5.89482 13.9326 5.80249 13.8355 5.77445Z" fill="#01444B"/>
<path d="M2.25383 4.97108C2.28078 5.07275 2.3695 5.14286 2.47057 5.14286C2.57163 5.14286 2.66035 5.07274 2.6873 4.97108C3.08036 3.4905 3.3538 3.20591 4.77662 2.79696C4.87432 2.76892 4.94113 2.6766 4.94113 2.57143C4.94113 2.46626 4.87375 2.37394 4.77662 2.34589C3.35379 1.93689 3.0803 1.65293 2.6873 0.171776C2.66035 0.0701088 2.57163 0 2.47057 0C2.3695 0 2.28078 0.0701148 2.25383 0.171776C1.86078 1.65236 1.58733 1.93695 0.164515 2.34589C0.0668135 2.37394 0 2.46626 0 2.57143C0 2.6766 0.0673799 2.76892 0.164515 2.79696C1.58735 3.20597 1.86084 3.48993 2.25383 4.97108Z" fill="#01444B"/>
<path d="M4.78239 9.63953C3.6305 9.30858 3.40945 9.07857 3.09146 7.88003C3.06546 7.78193 2.97985 7.71429 2.88233 7.71429C2.78481 7.71429 2.6992 7.78194 2.67319 7.88003C2.35515 9.07863 2.1341 9.30864 0.982268 9.63953C0.887993 9.66659 0.823522 9.75567 0.823522 9.85714C0.823522 9.95862 0.888539 10.0477 0.982268 10.0748C2.13415 10.4057 2.3552 10.6357 2.67319 11.8343C2.6992 11.9324 2.78481 12 2.88233 12C2.97985 12 3.06546 11.9323 3.09146 11.8343C3.40951 10.6357 3.63056 10.4056 4.78239 10.0748C4.87666 10.0477 4.94113 9.95862 4.94113 9.85714C4.94113 9.75567 4.87612 9.66659 4.78239 9.63953Z" fill="#01444B"/>
</svg>
