<svg width="16" height="17" viewBox="0 0 16 17" fill="none" xmlns="http://www.w3.org/2000/svg">
<path d="M6.65628 1.59383C6.96275 1.59383 7.21097 1.84073 7.21097 2.14405C7.21097 2.44805 6.96275 2.69427 6.65628 2.69427C3.59298 2.69427 1.1094 5.15784 1.1094 8.19647C1.1094 11.2358 3.59298 13.6987 6.65628 13.6987C9.29251 13.6987 11.4994 11.874 12.0631 9.42825C12.1318 9.13182 12.4299 8.94681 12.7287 9.01489C13.0269 9.0823 13.2134 9.37735 13.1455 9.6731C12.8418 10.9909 12.1394 12.158 11.1729 13.0445L13.7383 16.0976C13.9338 16.3307 13.9026 16.678 13.6676 16.8727C13.4325 17.0666 13.0831 17.0357 12.8869 16.8025L10.2986 13.7213C9.25228 14.4022 8.00153 14.799 6.65625 14.799C2.98005 14.799 0 11.843 0 8.19639C0 4.5505 2.98007 1.59383 6.65628 1.59383Z" fill="#E6E87D"/>
<path d="M12.6246 0.145431C12.66 -0.048477 12.94 -0.048477 12.974 0.145431C13.23 1.6104 14.3814 2.75858 15.8535 3.01359C16.0488 3.04812 16.0488 3.32705 15.8535 3.36091C14.3821 3.61658 13.23 4.76412 12.974 6.22907C12.9407 6.42364 12.6593 6.42364 12.6246 6.22907C12.3686 4.7641 11.2172 3.6166 9.74651 3.36091C9.55116 3.32704 9.55116 3.04814 9.74651 3.01359C11.2173 2.75858 12.3686 1.61038 12.6246 0.145431Z" fill="#E6E87D"/>
</svg>
