<svg width="20" height="22" viewBox="0 0 20 22" fill="none" xmlns="http://www.w3.org/2000/svg">
<path fill-rule="evenodd" clip-rule="evenodd" d="M1.42872 11.3547H0.714443C0.513551 11.3547 0.322491 11.4381 0.187658 11.5863C0.0519448 11.7326 -0.0150193 11.9305 0.00283888 12.1292C0.00283888 12.1292 0.145695 13.6905 0.303728 15.4169C0.488547 17.4332 1.718 19.1231 3.43308 19.9792L2.93308 20.9728C2.7563 21.3232 2.89915 21.7499 3.25182 21.9246C3.6045 22.1003 4.03396 21.9584 4.20985 21.608L4.7911 20.4547C5.17949 20.5372 5.58216 20.5807 5.99466 20.5807H14.0053C14.4178 20.5807 14.8205 20.5372 15.2089 20.4547L15.7902 21.608C15.966 21.9584 16.3955 22.1003 16.7482 21.9246C17.1009 21.7499 17.2437 21.3232 17.0669 20.9728L16.5669 19.9792C18.2821 19.1232 19.5116 17.4332 19.6963 15.4169C19.8543 13.6906 19.9972 12.1292 19.9972 12.1292C20.015 11.9305 19.9481 11.7326 19.8123 11.5863C19.6775 11.4381 19.4864 11.3547 19.2856 11.3547H2.85711V3.37092C2.85711 2.3064 3.64281 1.41929 4.64281 1.41929C5.50351 1.41929 6.20618 2.07751 6.38476 2.93977C5.17494 3.26977 4.28567 4.37155 4.28567 5.67743C4.28567 6.06954 4.6053 6.38711 4.99995 6.38711H9.28563C9.68028 6.38711 9.99991 6.06954 9.99991 5.67743C9.99991 4.345 9.07491 3.22728 7.8285 2.92115C7.61778 1.26316 6.25886 0 4.64269 0C2.88289 0 1.42854 1.49743 1.42854 3.37103L1.42872 11.3547ZM1.49658 12.7741H18.5035L18.2732 15.2881C18.0732 17.4819 16.2223 19.1612 14.0053 19.1612H5.99465C3.77771 19.1612 1.9268 17.4819 1.7268 15.2881L1.49658 12.7741ZM4.28582 7.80635V9.93539C4.28582 10.3275 4.60545 10.6451 5.0001 10.6451C5.39475 10.6451 5.71438 10.3275 5.71438 9.93539V7.80635C5.71438 7.41425 5.39475 7.09667 5.0001 7.09667C4.60545 7.09667 4.28582 7.41425 4.28582 7.80635ZM8.5715 7.80635V9.93539C8.5715 10.3275 8.89113 10.6451 9.28578 10.6451C9.68043 10.6451 10.0001 10.3275 10.0001 9.93539V7.80635C10.0001 7.41425 9.68043 7.09667 9.28578 7.09667C8.89113 7.09667 8.5715 7.41425 8.5715 7.80635ZM6.42866 7.80635V9.93539C6.42866 10.3275 6.74829 10.6451 7.14294 10.6451C7.53759 10.6451 7.85722 10.3275 7.85722 9.93539V7.80635C7.85722 7.41425 7.53759 7.09667 7.14294 7.09667C6.74829 7.09667 6.42866 7.41425 6.42866 7.80635ZM5.90544 4.96764C6.15275 4.5436 6.61437 4.25796 7.14294 4.25796C7.67151 4.25796 8.1331 4.5436 8.38044 4.96764H5.90544Z" fill="#00827A"/>
</svg>
