<svg width="25" height="20" viewBox="0 0 25 20" fill="none" xmlns="http://www.w3.org/2000/svg">
<path d="M4.54194 0C3.43955 0 2.54509 0.908398 2.54509 2.01328V7.91187H2.02378C0.919828 7.91187 0.000431287 8.79976 0.000431287 9.89864V16.3447C-0.000143762 16.3594 -0.000143762 16.3742 0.000431287 16.3889V18.6494C0.000193233 18.7252 0.015213 18.8003 0.0445972 18.8701C0.0661192 18.9244 0.0959361 18.9751 0.132986 19.0203C0.14424 19.0326 0.156033 19.0443 0.16833 19.0556C0.168307 19.0585 0.168307 19.0614 0.16833 19.0644C0.182453 19.0769 0.197193 19.0886 0.212495 19.0997C0.27829 19.1534 0.355348 19.1916 0.437948 19.2115C0.520548 19.2313 0.606565 19.2324 0.689612 19.2145H2.82784C2.97781 19.2144 3.12163 19.1549 3.22768 19.0489C3.33372 18.9429 3.3933 18.7992 3.39332 18.6493V16.9539H21.4887V18.6493C21.4887 18.7992 21.5483 18.9429 21.6543 19.0489C21.7604 19.1549 21.9042 19.2144 22.0542 19.2145H24.2101C24.3014 19.2312 24.3955 19.2252 24.484 19.1969C24.4869 19.197 24.4898 19.197 24.4927 19.1969C24.5265 19.1853 24.559 19.1705 24.5899 19.1528C24.5929 19.1528 24.5958 19.1528 24.5987 19.1528C24.6785 19.105 24.7453 19.0382 24.7931 18.9585C24.8519 18.8662 24.8826 18.7588 24.8815 18.6494V16.3889C24.8823 16.3713 24.8823 16.3536 24.8815 16.3359V9.89867C24.8815 8.79979 23.9621 7.91188 22.8581 7.91188H22.3368V2.01331C22.3368 0.908432 21.4423 3.45156e-05 20.34 3.45156e-05L4.54194 0ZM4.54194 1.13028H20.3401C20.8254 1.13028 21.2059 1.50512 21.2059 2.01328V7.91187H19.1031C19.1806 7.67959 19.2268 7.4229 19.2268 7.16132V5.25399C19.2268 4.7857 19.0997 4.35606 18.8557 4.00892C18.6116 3.66179 18.2127 3.382 17.7424 3.382H15.0563C14.5861 3.382 14.1871 3.66179 13.9431 4.00892C13.699 4.35606 13.572 4.7857 13.572 5.25399V7.16132C13.572 7.4229 13.6181 7.67959 13.6957 7.91187H11.1863C11.2639 7.67959 11.31 7.4229 11.31 7.16132V5.25399C11.31 4.7857 11.183 4.35606 10.939 4.00892C10.6949 3.66179 10.2959 3.382 9.82565 3.382H7.13961C6.66934 3.382 6.2704 3.66179 6.02633 4.00892C5.78226 4.35606 5.65525 4.7857 5.65525 5.25399V7.16132C5.65525 7.4229 5.70137 7.67959 5.77892 7.91187H3.67604V2.01328C3.67604 1.50512 4.0566 1.13028 4.54194 1.13028ZM7.13961 4.51225H9.82565C9.86399 4.51225 9.92339 4.52865 10.0112 4.65354C10.099 4.77843 10.1791 4.99883 10.1791 5.25399V7.16132C10.1791 7.41645 10.099 7.63683 10.0112 7.76178C9.92339 7.88667 9.86399 7.90303 9.82565 7.90303H7.13961C7.10127 7.90303 7.04186 7.88664 6.9541 7.76178C6.86625 7.63683 6.7862 7.41645 6.7862 7.16132V5.25399C6.7862 4.99883 6.86625 4.77843 6.9541 4.65354C7.04186 4.52859 7.10127 4.51225 7.13961 4.51225ZM15.0563 4.51225H17.7424C17.7807 4.51225 17.8401 4.52865 17.9279 4.65354C18.0158 4.77843 18.0958 4.99883 18.0958 5.25399V7.16132C18.0958 7.41645 18.0158 7.63683 17.9279 7.76178C17.8401 7.88667 17.7807 7.90303 17.7424 7.90303H15.0563C15.018 7.90303 14.9586 7.88664 14.8708 7.76178C14.783 7.63683 14.7029 7.41645 14.7029 7.16132V5.25399C14.7029 4.99883 14.783 4.77843 14.8708 4.65354C14.9586 4.52859 15.018 4.51225 15.0563 4.51225ZM2.02378 9.04213H3.00456C3.08032 9.05784 3.1585 9.05784 3.23427 9.04213H21.6654C21.7412 9.05784 21.8194 9.05784 21.8951 9.04213H22.8582C23.3689 9.04213 23.7506 9.42034 23.7506 9.89864V12.1415L1.13138 12.221V9.89864C1.13138 9.42034 1.5131 9.04213 2.02378 9.04213ZM23.7506 13.2718V15.8238H1.13138V13.3513L23.7506 13.2718ZM1.13138 16.954H2.26236V18.0843H1.13138V16.954ZM22.6196 16.954H23.7506V18.0843H22.6196V16.954Z" fill="#00827A"/>
</svg>
