<svg width="21" height="19" viewBox="0 0 21 19" fill="none" xmlns="http://www.w3.org/2000/svg">
<path d="M5.40332 0.125L5.4043 0.126953C6.73795 0.136721 8.07774 0.677593 9.09082 1.74609L10.249 2.97363L11.4082 1.75684C13.4544 -0.400641 16.7982 -0.399941 18.8438 1.75781C20.8854 3.91194 20.8854 7.36749 18.8438 9.52148C16.098 12.4177 13.3521 15.3194 10.6064 18.2158L10.6055 18.2148C10.512 18.3159 10.3821 18.3749 10.2441 18.375C10.1054 18.375 9.97349 18.316 9.87988 18.2139L9.87695 18.2109L1.65527 9.50977C-0.383849 7.35421 -0.386413 3.90017 1.65527 1.74609C2.67708 0.668059 4.02113 0.125034 5.36719 0.125H5.40332ZM5.36719 1.11328C4.28803 1.11335 3.21825 1.55038 2.38086 2.43359C0.705378 4.20114 0.706324 7.05351 2.38086 8.82324L10.249 17.1387C12.8723 14.3712 15.4949 11.6012 18.1182 8.83398C19.7937 7.06637 19.7938 4.21191 18.1182 2.44434C16.4462 0.680724 13.7941 0.680873 12.1221 2.44434L10.6064 4.0498C10.5131 4.1478 10.3837 4.20312 10.249 4.20312C10.1146 4.20306 9.9858 4.14772 9.89258 4.0498L9.69141 3.83887H9.69336L8.36523 2.43262C7.52784 1.5497 6.44632 1.11328 5.36719 1.11328Z" fill="black" stroke="black" stroke-width="0.25"/>
</svg>
