<svg width="13" height="16" viewBox="0 0 13 16" fill="none" xmlns="http://www.w3.org/2000/svg">
<path fill-rule="evenodd" clip-rule="evenodd" d="M0 6.17085C0 4.46741 0.705058 2.92396 1.8451 1.80727C2.98513 0.690605 4.56017 0 6.3 0C8.03983 0 9.61485 0.690605 10.7549 1.80727C11.8949 2.92394 12.6 4.46669 12.6 6.17085C12.6 7.56976 11.9711 9.08936 11.0658 10.5405C9.84963 12.4893 8.12544 14.3259 6.77413 15.5654C6.63987 15.6885 6.4695 15.75 6.30068 15.75C6.13187 15.75 5.9615 15.6885 5.82723 15.5654C4.47599 14.3257 2.75177 12.49 1.53554 10.5405C0.6287 9.08934 0 7.56966 0 6.17085ZM6.30006 3.18305C5.4576 3.18305 4.69522 3.51758 4.14336 4.05822C3.5914 4.59887 3.24987 5.34562 3.24987 6.17071C3.24987 6.99581 3.5914 7.74266 4.14336 8.2832C4.69532 8.82385 5.4577 9.15838 6.30006 9.15838C7.14174 9.15838 7.9049 8.82385 8.45676 8.2832C9.00872 7.74256 9.35026 6.99581 9.35026 6.17071C9.35026 5.34629 9.00872 4.59877 8.45676 4.05822C7.9048 3.51758 7.14164 3.18305 6.30006 3.18305ZM8.03053 4.47582C7.58771 4.04208 6.97607 3.77368 6.30006 3.77368C5.62405 3.77368 5.01243 4.04208 4.56959 4.47582C4.12676 4.90956 3.85276 5.50866 3.85276 6.17081C3.85276 6.83297 4.12678 7.43205 4.56959 7.86581C5.01241 8.29957 5.62405 8.56795 6.30006 8.56795C6.97607 8.56795 7.58769 8.29955 8.03053 7.86581C8.47336 7.43207 8.74736 6.83297 8.74736 6.17081C8.74658 5.50866 8.47334 4.90958 8.03053 4.47582ZM2.27155 2.22473C1.24066 3.23449 0.603113 4.62958 0.603113 6.17073C0.603113 7.45043 1.19511 8.86696 2.04778 10.2337C3.23334 12.134 4.91662 13.9259 6.23657 15.1363C6.25384 15.1517 6.27661 15.1594 6.30016 15.1594C6.32372 15.1594 6.34649 15.1517 6.36376 15.1363C7.68359 13.9258 9.36626 12.1339 10.5525 10.2337C11.4052 8.86708 11.9972 7.45043 11.9972 6.17073C11.9972 4.62956 11.3597 3.23451 10.3288 2.22473C9.29788 1.21497 7.87359 0.590493 6.30019 0.590493C4.72678 0.590493 3.30247 1.21497 2.27155 2.22473Z" fill="#F5F5F3"/>
</svg>
