<svg width="19" height="24" viewBox="0 0 19 24" fill="none" xmlns="http://www.w3.org/2000/svg">
<path d="M4.85718 21.143C4.54161 21.143 4.28575 20.8872 4.28575 20.5716V3.42873C4.28575 3.11316 4.54161 2.8573 4.85718 2.8573C5.17275 2.8573 5.42861 3.11316 5.42861 3.42873V20.5716C5.42861 20.8872 5.17275 21.143 4.85718 21.143Z" fill="#01444B"/>
<path d="M13.4286 19.7141C13.113 19.7141 12.8571 19.4583 12.8571 19.1427V4.85697C12.8571 4.5414 13.113 4.28554 13.4286 4.28554C13.7441 4.28554 14 4.5414 14 4.85697V19.1427C14 19.4583 13.7441 19.7141 13.4286 19.7141Z" fill="#01444B"/>
<path d="M9.14282 24C8.82725 24 8.57139 23.7441 8.57139 23.4286V0.571428C8.57139 0.255859 8.82725 0 9.14282 0C9.45839 0 9.71425 0.255859 9.71425 0.571428V23.4286C9.71425 23.7441 9.45839 24 9.14282 24Z" fill="#01444B"/>
<path d="M0.571429 18.2856C0.255859 18.2856 0 18.0298 0 17.7142V6.28562C0 5.97005 0.255859 5.71419 0.571429 5.71419C0.886998 5.71419 1.14286 5.97005 1.14286 6.28562V17.7142C1.14286 18.0298 0.886998 18.2856 0.571429 18.2856Z" fill="#01444B"/>
<path d="M17.7143 16.8571C17.3988 16.8571 17.1429 16.6013 17.1429 16.2857V7.71427C17.1429 7.39871 17.3988 7.14285 17.7143 7.14285C18.0299 7.14285 18.2857 7.39871 18.2857 7.71427V16.2857C18.2857 16.6013 18.0299 16.8571 17.7143 16.8571Z" fill="#01444B"/>
</svg>
