<svg width="18" height="18" viewBox="0 0 18 18" fill="none" xmlns="http://www.w3.org/2000/svg">
<path d="M16.9535 18H0.627898C0.376735 18 0.142316 17.8493 0.0502231 17.6149C-0.0502421 17.3805 0.0083627 17.1126 0.184177 16.9284L5.20743 11.9051C5.32464 11.7879 5.48371 11.7209 5.65116 11.7209H16.9535C17.5312 11.7209 18 12.1898 18 12.7674V16.9535C18 17.5312 17.5312 18 16.9535 18ZM2.14325 16.7442H16.7442V12.9767H5.91069L2.14325 16.7442Z" fill="#00827A"/>
<path d="M14.8605 18C14.5172 18 14.2326 17.7153 14.2326 17.3721V14.8605C14.2326 14.5172 14.5172 14.2326 14.8605 14.2326C15.2037 14.2326 15.4884 14.5172 15.4884 14.8605V17.3721C15.4884 17.7153 15.2037 18 14.8605 18Z" fill="#00827A"/>
<path d="M11.5116 18C11.1684 18 10.8837 17.7153 10.8837 17.3721V15.6977C10.8837 15.3544 11.1684 15.0698 11.5116 15.0698C11.8549 15.0698 12.1395 15.3544 12.1395 15.6977V17.3721C12.1395 17.7153 11.8549 18 11.5116 18Z" fill="#00827A"/>
<path d="M8.1628 18C7.81954 18 7.53489 17.7153 7.53489 17.3721V14.8605C7.53489 14.5172 7.81954 14.2326 8.1628 14.2326C8.50605 14.2326 8.7907 14.5172 8.7907 14.8605V17.3721C8.7907 17.7153 8.50605 18 8.1628 18Z" fill="#00827A"/>
<path d="M0.627898 18C0.544177 18 0.468837 17.9833 0.385117 17.9498C0.150698 17.8493 0 17.6233 0 17.3721V1.04651C0 0.468837 0.468837 0 1.04651 0H5.23256C5.81024 0 6.27907 0.468837 6.27907 1.04651V12.3488C6.27907 12.5163 6.2121 12.6753 6.09489 12.7926L1.07163 17.8158C0.954419 17.933 0.79534 18 0.627898 18ZM1.25581 1.25581V15.8567L5.02326 12.0893V1.25581H1.25581Z" fill="#00827A"/>
<path d="M3.13954 3.76744H0.627907C0.284651 3.76744 0 3.48279 0 3.13953C0 2.79628 0.284651 2.51163 0.627907 2.51163H3.13954C3.48279 2.51163 3.76744 2.79628 3.76744 3.13953C3.76744 3.48279 3.48279 3.76744 3.13954 3.76744Z" fill="#00827A"/>
<path d="M2.30233 7.11628H0.627907C0.284651 7.11628 0 6.83163 0 6.48837C0 6.14512 0.284651 5.86046 0.627907 5.86046H2.30233C2.64558 5.86046 2.93023 6.14512 2.93023 6.48837C2.93023 6.83163 2.64558 7.11628 2.30233 7.11628Z" fill="#00827A"/>
<path d="M3.13954 10.4651H0.627907C0.284651 10.4651 0 10.1805 0 9.83721C0 9.49395 0.284651 9.2093 0.627907 9.2093H3.13954C3.48279 9.2093 3.76744 9.49395 3.76744 9.83721C3.76744 10.1805 3.48279 10.4651 3.13954 10.4651Z" fill="#00827A"/>
</svg>
